Coordinates
version=1
nRows=10
nColumns=40
inDegrees=yes

Units are S.I. units (second, meters, Newtons, ...)
Angles are in degrees.

endheader
time	pelvis_tilt	pelvis_list	pelvis_rotation	pelvis_tx	pelvis_ty	pelvis_tz	hip_flexion_r	hip_adduction_r	hip_rotation_r	knee_angle_r	knee_angle_r_beta	ankle_angle_r	subtalar_angle_r	mtp_angle_r	hip_flexion_l	hip_adduction_l	hip_rotation_l	knee_angle_l	knee_angle_l_beta	ankle_angle_l	subtalar_angle_l	mtp_angle_l	lumbar_extension	lumbar_bending	lumbar_rotation	arm_flex_r	arm_add_r	arm_rot_r	elbow_flex_r	pro_sup_r	wrist_flex_r	wrist_dev_r	arm_flex_l	arm_add_l	arm_rot_l	elbow_flex_l	pro_sup_l	wrist_flex_l	wrist_dev_l
      6.62250000	     -4.65602801	     -6.40994422	      1.46552176	      0.96066518	      0.91002146	      0.53285014	     16.10634575	      7.88239014	     -8.81209983	     29.38744940	     29.38744940	     18.67684196	     -9.50958598	      1.06296272	     28.34056140	    -16.71295403	      3.92971095	     63.81561547	     63.81561547	     13.46141731	    -18.95778832	     13.14691209	    -10.83022579	      5.07360223	      0.74667015	     20.84639192	    -16.49943021	     -6.54577758	     56.13365143	     45.17605464	      0.00000000	      0.00000000	      0.39427176	     -8.16471931	      1.42818362	     23.06922710	     45.96290824	      0.00000000	      0.00000000
      6.64585714	     -4.56796651	     -6.43522938	      2.19380473	      0.95896380	      0.91002833	      0.53397129	     15.79989572	      7.93709807	     -9.27857853	     29.30481807	     29.30481807	     18.81630156	     -9.76799987	      1.08840656	     30.12288189	    -16.33983882	      4.84455434	     64.54882480	     64.54882480	     13.74912674	    -19.10347303	     14.48251451	    -10.82209637	      5.17289601	      0.26964238	     24.53218585	    -16.23749285	     -6.73375931	     58.86960087	     45.11134441	      0.00000000	      0.00000000	     -2.64862064	     -7.71130055	      1.95019878	     22.15415071	     45.79128934	      0.00000000	      0.00000000
      6.66921429	     -4.44416304	     -6.26583139	      2.85449005	      0.95731664	      0.91076837	      0.53456811	     15.32539939	      7.75721686	     -9.71210948	     29.02745935	     29.02745935	     18.83803518	     -9.83451274	      0.99711310	     31.49963580	    -15.69039258	      5.54042826	     64.39351709	     64.39351709	     14.93909904	    -19.16637168	     18.14516191	    -10.92155014	      5.04182440	      0.63338961	     27.76338876	    -17.06445380	     -6.22155160	     61.38900485	     45.04746730	      0.00000000	      0.00000000	     -5.92610777	     -7.66108545	      4.01964281	     23.87657115	     45.24684814	      0.00000000	      0.00000000
      6.69257143	     -4.34205440	     -6.13912145	      3.58194534	      0.95574021	      0.91206401	      0.53485606	     14.66194012	      7.64928259	    -10.15718225	     28.34210855	     28.34210855	     18.75851167	     -9.86994141	      1.12165864	     32.46009566	    -15.20670170	      5.97534384	     63.02526607	     63.02526607	     14.94778199	    -19.23660458	     18.20241834	    -10.92396331	      4.96448636	      0.92237210	     31.14373241	    -17.54017587	     -6.54599930	     63.21821904	     45.01951957	      0.00000000	      0.00000000	     -8.20062052	     -7.30531901	      4.70563668	     23.42332430	     45.07007634	      0.00000000	      0.00000000
      6.71592857	     -4.36378687	     -5.89440872	      4.36879097	      0.95402391	      0.91350091	      0.53466705	     14.07668004	      7.37224734	    -10.67821331	     27.54134166	     27.54134166	     18.34939836	     -9.97949101	      0.42201389	     33.20963868	    -14.57257795	      6.25945117	     60.75397119	     60.75397119	     14.76877046	    -19.25256556	     17.84932798	    -10.81055322	      4.77510066	      1.21394313	     34.38325486	    -18.27812244	     -6.36094287	     65.08103501	     45.09461492	      0.00000000	      0.00000000	    -11.67630493	     -9.18373730	     16.92039437	     27.54764490	     42.99292477	      0.00000000	      0.00000000
      6.73928571	     -4.39955016	     -5.59078451	      5.19136013	      0.95224486	      0.91529907	      0.53401889	     13.41177673	      7.02244911	    -11.21503080	     26.60143073	     26.60143073	     18.18940272	     -9.88968911	      0.66874494	     33.60786076	    -13.83296167	      6.44794086	     57.65314707	     57.65314707	     14.61087168	    -19.20547026	     17.92965620	    -10.73089022	      4.50465998	      1.54539262	     37.42467141	    -18.93741968	     -6.71600377	     66.94732317	     45.06316129	      0.00000000	      0.00000000	    -13.40584820	     -8.93973857	     17.15343284	     27.43984991	     42.95430835	      0.00000000	      0.00000000
      6.76264286	     -4.52696057	     -5.24457771	      6.06030859	      0.95034329	      0.91706366	      0.53291994	     12.79817283	      6.58399482	    -11.85767962	     25.59351856	     25.59351856	     18.01378325	     -9.69262911	      0.83360701	     33.76655633	    -12.98995794	      6.58707152	     53.86083396	     53.86083396	     14.14969084	    -19.10823680	     17.67405248	    -10.61480299	      4.19003615	      1.67970319	     40.34238542	    -19.52458411	     -6.93949605	     68.94705832	     45.02264960	      0.00000000	      0.00000000	    -15.11400554	     -8.79044477	     17.44604978	     27.77531583	     42.90350608	      0.00000000	      0.00000000
      6.78600000	     -4.73892838	     -4.93867669	      6.95272406	      0.94835657	      0.91843994	      0.53150853	     12.29455277	      6.14271160	    -12.62893198	     24.61705168	     24.61705168	     17.70743941	     -9.44106348	      0.46837733	     33.63554340	    -12.25197194	      6.54494349	     49.33908472	     49.33908472	     12.27392766	    -18.94639254	     13.76886677	    -10.43154382	      3.88442542	      1.90710140	     42.79834842	    -20.46860005	     -6.80923886	     71.69339895	     44.97113638	      0.00000000	      0.00000000	    -17.27174310	     -9.36599398	     19.05792294	     30.77240295	     42.76822931	      0.00000000	      0.00000000
      6.80935714	     -4.92618582	     -4.62984543	      7.85516250	      0.94631245	      0.91978549	      0.52968534	     11.70933535	      5.71452532	    -13.33487627	     23.55471337	     23.55471337	     17.43072754	     -9.25215485	      0.21567767	     33.22153342	    -11.42708723	      6.55145610	     44.50735601	     44.50735601	     10.58977645	    -18.62473085	     11.12119270	    -10.27277583	      3.60089862	      2.05607223	     45.37881250	    -21.12887463	     -7.05352164	     73.36259400	     44.98269058	      0.00000000	      0.00000000	    -18.49103207	     -9.68667048	     21.46489569	     31.70183903	     42.67193014	      0.00000000	      0.00000000
      6.83271429	     -5.22976384	     -4.30613220	      8.69877749	      0.94415545	      0.92068541	      0.52752543	     11.36272454	      5.24017466	    -13.90644279	     22.73563905	     22.73563905	     17.33536157	     -9.23788398	      0.36484688	     32.86862984	    -10.52379621	      6.56914898	     39.88325322	     39.88325322	     10.04970598	    -17.67294878	     11.59717467	    -10.01913001	      3.26635818	      2.21328442	     47.85176522	    -21.69283528	     -7.30463667	     74.51562053	     44.96796960	      0.00000000	      0.00000000	    -19.28529594	     -9.45504499	     21.69306188	     31.67761303	     42.65194765	      0.00000000	      0.00000000
